<svg xmlns="http://www.w3.org/2000/svg" width="1728" height="1117" viewBox="0 0 1728 1117" fill="none">
<g clip-path="url(#clip0_161_422)">
<rect width="1728" height="1117" fill="#15305E"/>
<path d="M80.9956 446.361C114.416 446.361 146.467 433.101 170.099 409.497C193.731 385.894 207.007 353.88 207.007 320.5C207.007 287.12 193.731 255.106 170.099 231.503C146.467 207.899 114.416 194.639 80.9956 194.639C42.0099 194.639 4.62134 179.171 -22.9457 151.637C-50.5128 124.103 -66 86.7584 -66 47.8194C-66 8.88049 -50.5128 -28.4636 -22.9457 -55.9976C4.62134 -83.5316 42.0099 -99 80.9956 -99C192.387 -99 299.217 -54.8028 377.983 23.8687C456.749 102.54 501 209.242 501 320.5C501 431.758 456.749 538.46 377.983 617.131C299.217 695.803 192.387 740 80.9956 740C42.0099 740 4.62134 724.531 -22.9457 696.997C-50.5128 669.464 -66 632.119 -66 593.181C-66 554.242 -50.5128 516.898 -22.9457 489.364C4.62134 461.83 42.0099 446.361 80.9956 446.361Z" fill="#143D76"/>
<circle cx="212.325" cy="400.661" r="12.0544" transform="rotate(58.5014 212.325 400.661)" fill="#53AFBE"/>
<circle cx="236.708" cy="453.264" r="5.35749" transform="rotate(58.5014 236.708 453.264)" fill="#FE5C36"/>
<circle cx="147.493" cy="394.834" r="5.35749" transform="rotate(58.5014 147.493 394.834)" fill="#FEB449"/>
<path d="M1707.56 623.133C1656.99 623.133 1608.49 643.189 1572.73 678.89C1536.97 714.591 1516.88 763.011 1516.88 813.5C1516.88 863.988 1536.97 912.409 1572.73 948.109C1608.49 983.81 1656.99 1003.87 1707.56 1003.87C1766.56 1003.87 1823.13 1027.26 1864.85 1068.91C1906.56 1110.55 1930 1167.04 1930 1225.93C1930 1284.83 1906.56 1341.31 1864.85 1382.96C1823.13 1424.6 1766.56 1448 1707.56 1448C1539 1448 1377.34 1381.15 1258.15 1262.16C1138.96 1143.17 1072 981.779 1072 813.5C1072 645.22 1138.96 483.832 1258.15 364.84C1377.34 245.849 1539 179 1707.56 179C1766.56 179 1823.13 202.396 1864.85 244.042C1906.56 285.687 1930 342.171 1930 401.066C1930 459.962 1906.56 516.446 1864.85 558.091C1823.13 599.737 1766.56 623.133 1707.56 623.133Z" fill="#143D76"/>
<circle cx="1624.49" cy="185.733" r="12.0544" transform="rotate(159.173 1624.49 185.733)" fill="#53AFBE"/>
<circle cx="1568.28" cy="199.953" r="5.35749" transform="rotate(159.173 1568.28 199.953)" fill="#FE5C36"/>
<circle cx="1642.22" cy="123.102" r="5.35749" transform="rotate(159.173 1642.22 123.102)" fill="#FEB449"/>
<circle cx="1356.15" cy="908.855" r="7.51501" transform="rotate(-15.5816 1356.15 908.855)" fill="#53AFBE"/>
<circle cx="1391.86" cy="903.231" r="3.34" transform="rotate(-15.5816 1391.86 903.231)" fill="#FE5C36"/>
<circle cx="1341.57" cy="946.728" r="3.34" transform="rotate(-15.5816 1341.57 946.728)" fill="#FEB449"/>
<path opacity="0.5" d="M846.138 212.714C846.128 224.111 841.676 235.04 833.758 243.106C829.833 247.099 825.172 250.267 820.041 252.427C814.911 254.587 809.413 255.698 803.86 255.696C798.31 255.696 792.815 254.584 787.687 252.424C782.559 250.264 777.901 247.097 773.977 243.106C766.059 235.04 761.607 224.111 761.597 212.714C761.596 199.415 756.402 186.661 747.157 177.255C742.578 172.598 737.142 168.904 731.16 166.384C725.177 163.865 718.765 162.568 712.29 162.569C699.213 162.57 686.672 167.853 677.424 177.255C668.173 186.658 662.973 199.413 662.969 212.714C662.97 250.712 677.812 287.154 704.23 314.023C730.649 340.895 766.482 355.994 803.846 356C841.216 355.997 877.054 340.898 903.477 314.023C929.895 287.154 944.737 250.712 944.738 212.714C944.737 199.415 939.543 186.661 930.297 177.255C921.049 167.853 908.508 162.57 895.431 162.569C882.363 162.575 869.832 167.857 860.593 177.255C851.342 186.658 846.143 199.413 846.138 212.714Z" fill="#143D76"/>
<path d="M1030.41 102.158C1030.41 96.5575 1029.32 91.0117 1027.2 85.8379C1025.07 80.6641 1021.96 75.9637 1018.03 72.0056C1014.11 68.0438 1009.45 64.9013 1004.32 62.758C999.193 60.6146 993.697 59.5125 988.146 59.5146C982.596 59.5125 977.099 60.6146 971.971 62.758C966.843 64.9013 962.184 68.0438 958.261 72.0055C954.335 75.9637 951.22 80.6641 949.096 85.8379C946.971 91.0117 945.879 96.5575 945.881 102.158C945.88 115.352 940.685 128.006 931.44 137.337C922.191 146.666 909.649 151.907 896.571 151.908C890.096 151.909 883.683 150.623 877.7 148.123C871.718 145.623 866.282 141.958 861.703 137.337C852.457 128.006 847.263 115.352 847.262 102.158C847.261 83.4897 850.906 65.0043 857.989 47.7582C865.071 30.512 875.452 14.8429 888.539 1.646C901.618 -11.5553 917.146 -22.0279 934.237 -29.1736C951.328 -36.3193 969.646 -39.9981 988.146 -40C1006.65 -39.9984 1024.97 -36.3197 1042.06 -29.1741C1059.16 -22.0284 1074.69 -11.5557 1087.77 1.646C1100.85 14.844 1111.23 30.5138 1118.31 47.7599C1125.39 65.006 1129.03 83.4907 1129.03 102.158C1129.03 115.352 1123.84 128.006 1114.59 137.337C1110.01 141.958 1104.58 145.623 1098.59 148.123C1092.61 150.623 1086.2 151.909 1079.72 151.908C1066.64 151.907 1054.1 146.666 1044.85 137.337C1035.61 128.006 1030.41 115.352 1030.41 102.158Z" fill="#143D76"/>
<path d="M510.744 918.094C499.629 918.085 488.97 913.756 481.104 906.058C477.209 902.241 474.12 897.709 472.013 892.721C469.906 887.733 468.823 882.387 468.825 876.988C468.825 871.592 469.909 866.248 472.016 861.263C474.123 856.277 477.211 851.748 481.104 847.933C488.97 840.234 499.629 835.906 510.744 835.896C523.715 835.895 536.154 830.845 545.327 821.855C549.869 817.404 553.471 812.119 555.929 806.302C558.387 800.485 559.651 794.251 559.65 787.955C559.649 775.24 554.497 763.046 545.327 754.054C536.156 745.06 523.717 740.005 510.744 740C473.686 740.001 438.145 754.432 411.939 780.118C385.732 805.805 371.006 840.645 371 876.975C371.003 913.309 385.729 948.154 411.939 973.845C438.145 999.531 473.686 1013.96 510.744 1013.96C523.715 1013.96 536.154 1008.91 545.327 999.922C554.497 990.93 559.649 978.736 559.65 966.022C559.645 953.316 554.493 941.132 545.327 932.149C536.156 923.154 523.717 918.099 510.744 918.094Z" fill="#143D76"/>
<path opacity="0.5" d="M617.544 1097.11C622.979 1097.11 628.361 1096.05 633.383 1093.99C638.404 1091.92 642.965 1088.89 646.807 1085.08C650.652 1081.26 653.702 1076.73 655.782 1071.75C657.862 1066.76 658.931 1061.42 658.929 1056.02C658.931 1050.62 657.862 1045.28 655.782 1040.29C653.702 1035.31 650.652 1030.78 646.807 1026.96C642.965 1023.14 638.404 1020.12 633.383 1018.05C628.361 1015.98 622.979 1014.92 617.544 1014.92C604.739 1014.92 592.458 1009.87 583.402 1000.88C574.349 991.89 569.263 979.696 569.262 966.981C569.261 960.684 570.509 954.45 572.935 948.633C575.362 942.815 578.918 937.53 583.402 933.078C592.458 924.089 604.739 919.038 617.544 919.037C635.662 919.036 653.602 922.58 670.339 929.467C687.076 936.353 702.283 946.447 715.091 959.171C727.903 971.887 738.066 986.985 745.001 1003.6C751.936 1020.22 755.507 1038.03 755.508 1056.02C755.507 1074.01 751.937 1091.82 745.002 1108.44C738.067 1125.06 727.903 1140.16 715.091 1152.88C702.282 1165.6 687.075 1175.69 670.337 1182.58C653.6 1189.46 635.661 1193 617.544 1193C604.739 1193 592.458 1187.95 583.402 1178.96C578.918 1174.51 575.362 1169.22 572.935 1163.4C570.509 1157.59 569.261 1151.35 569.262 1145.06C569.263 1132.34 574.349 1120.15 583.402 1111.15C592.458 1102.16 604.739 1097.11 617.544 1097.11Z" fill="#143D76"/>
<circle cx="234.589" cy="929.845" r="4.95853" transform="rotate(75 234.589 929.845)" fill="#53AFBE"/>
<circle cx="238.061" cy="953.442" r="2.20379" transform="rotate(75 238.061 953.442)" fill="#FE5C36"/>
<circle cx="209.699" cy="919.974" r="2.20379" transform="rotate(75 209.699 919.974)" fill="#FEB449"/>
<path d="M48.5 1042.57C86.8838 1042.57 118 1011.72 118 973.652C118 935.588 86.8838 904.731 48.5 904.731C10.1162 904.731 -21 935.588 -21 973.652C-21 1011.72 10.1162 1042.57 48.5 1042.57Z" fill="#143D76"/>
<path d="M738 687C779.421 687 813 653.421 813 612C813 570.579 779.421 537 738 537C696.579 537 663 570.579 663 612C663 653.421 696.579 687 738 687Z" fill="#14376A"/>
</g>
<defs>
<clipPath id="clip0_161_422">
<rect width="1728" height="1117" fill="white"/>
</clipPath>
</defs>
</svg>